<svg width="44" height="40" viewBox="0 0 62 56" fill="none" xmlns="http://www.w3.org/2000/svg">
<path d="M37.8266 32.0466C38.2868 32.5115 39.5547 33.7879 39.5547 34.5116C39.5547 35.2354 39.2985 36.2705 38.8904 36.7355C37.8136 37.8233 35.304 37.718 35.1998 37.718H6.5085C6.20022 37.718 5.84419 37.7706 5.48382 37.7706C4.05099 37.8233 2.20567 37.9241 1.07678 36.9416C0.412472 36.3188 0 35.5424 0 34.7178C0 33.6826 0.664303 32.3887 1.68899 31.9764C3.07406 31.4588 4.55898 31.5641 6.04391 31.5114H6.30009C9.22219 31.4588 12.3961 31.4588 15.4702 31.5114L15.4181 23.9539C11.3193 23.6951 7.32477 22.66 4.81081 19.0369C3.27378 16.914 2.86565 14.4313 2.86565 11.8434C2.86565 6.51414 5.93971 2.78583 10.807 1.18045C14.033 0.0926627 17.5195 -0.166131 20.9019 0.0926579C23.6677 0.298812 26.5898 0.456721 29.1515 1.6454C30.3281 2.21561 31.4049 2.93934 32.3775 3.9745C34.7873 6.56239 35.5558 9.66786 35.2996 13.0848C34.7352 20.9011 28.6391 23.9539 21.9266 24.0065L22.0308 31.5114C25.8212 31.5114 28.1268 31.4062 31.6611 31.5114C32.8899 31.5641 34.1447 31.507 35.2171 31.6079M28.6912 12.5672C28.587 8.99676 26.2337 7.33876 23.0034 6.92646C19.1608 6.46151 10.7592 5.47898 9.93859 11.0144C9.47835 14.3261 10.8113 17.2254 15.6786 17.6903C18.0883 17.9491 20.5979 18.3132 23.0034 17.8438C25.361 17.3789 27.9748 16.3964 28.587 13.8567C28.6912 13.4488 28.7433 13.0321 28.6912 12.5672Z" fill="#181818"/>
<path d="M61.2747 32.4852C62.3428 33.2221 62.0693 35.1652 61.4875 36.0732C60.4063 37.7487 58.3353 37.7487 58.2354 37.7487H30.8815C29.3662 37.8014 27.3819 37.2136 26.2704 36.2793C24.4555 35.0731 24.9027 32.63 26.8783 31.8799C28.2937 31.415 29.8047 31.6606 31.32 31.608C34.6025 31.5027 35.6706 31.5202 39.0573 31.5202V28.52C38.5536 28.52 37.9978 28.4674 37.7938 28.4674C34.7588 28.1867 29.5659 29.5596 28.2937 25.6733C28.0419 24.9496 27.8378 24.432 27.8378 23.6557C27.9377 22.9319 27.7857 18.6334 27.7857 17.9097C27.8856 17.028 28.0896 16.1508 28.4934 15.3744C28.7453 14.9621 29.453 14.4445 29.8568 14.1331C30.5558 13.8304 31.3938 13.7646 32.1319 14.0278C32.6877 14.1813 33.1914 14.4928 33.4953 14.9577C33.7471 15.3174 35.6576 11.4311 35.2234 13.1856C35.5013 14.3261 34.4549 19.958 34.6068 21.1687C34.6589 21.7915 34.507 21.8924 34.7588 22.4626C35.1626 23.4978 36.0744 23.0328 36.882 23.1337H51.5359C53.5158 23.1863 56.2208 22.66 57.5972 24.7391C58.2528 25.8269 57.9488 26.4453 56.9415 27.327C55.2742 28.7262 52.7473 28.4148 50.7283 28.4674C50.1725 28.4674 49.5646 28.4148 49.0089 28.4674C48.3142 28.4674 46.8119 28.4674 46.1302 28.4674C46.1823 29.4499 46.2301 30.643 46.2301 31.5202C49.9684 31.5202 55.3567 31.4544 58.2397 31.608C59.3469 31.6606 60.3152 31.7088 61.2747 32.4852ZM60.2717 52.9954C60.6755 54.2367 60.2196 55.1184 58.9561 55.6359C58.1485 55.9474 57.2889 56 56.5811 56H33.0872C31.7238 56 30.2563 55.9474 28.793 55.8947C27.3776 55.8421 26.3659 54.7543 26.2183 53.2015L26.0663 49.5785C26.0142 48.8547 25.9665 47.6135 26.57 46.938C27.4774 45.9028 29.2967 45.7493 30.7643 45.7493C32.6834 45.7493 39.1007 45.8019 54.51 45.8019V43.9378H29.6527C28.9971 43.9378 28.4413 43.9378 27.9333 43.8325C27.3255 43.679 26.8218 43.679 26.5179 43.1087C26.062 42.385 25.91 41.7095 26.1662 40.8849C26.5179 39.7971 28.0375 39.6436 28.793 39.5383C29.2967 39.4331 29.8047 39.3848 30.3605 39.3848C33.3911 39.3848 36.9297 39.4374 55.0181 39.4374C58.4047 39.4374 60.3238 40.4726 60.3238 42.8544V46.53C60.3238 47.4599 59.9201 48.4951 58.8606 49.1179C58.0009 49.6355 57.0935 49.5829 56.2338 49.5829H32.2839V51.447H58.0009C59.0604 51.5479 59.9722 51.912 60.2717 52.9954Z" fill="#181818"/>
</svg>
